<?xml version="1.0" encoding="utf-8"?>
<!-- Generator: Adobe Illustrator 27.9.0, SVG Export Plug-In . SVG Version: 6.00 Build 0)  -->
<svg version="1.1" id="Layer_1" xmlns="http://www.w3.org/2000/svg" xmlns:xlink="http://www.w3.org/1999/xlink" x="0px" y="0px"
	 viewBox="0 0 2000 2500" style="enable-background:new 0 0 2000 2500;" xml:space="preserve">
<style type="text/css">
	.st0{fill-rule:evenodd;clip-rule:evenodd;fill:#FFFFFF;}
</style>
<g>
	<path class="st0" d="M456.6,864.8c24.5-98.7,75.7-188.8,147.5-260.7c71.9-71.9,161.9-123.1,260.7-147.5l27.8-6.9L936,307
		l-84.1,18.4c-128.9,28.2-246.9,93-340.2,186.3C418.4,605,353.6,722.9,325.4,851.9L307,936l142.7-43.4L456.6,864.8z"/>
	<path class="st0" d="M1135.2,456.6c98.7,24.5,188.8,75.7,260.7,147.5c71.9,71.9,123.1,161.9,147.5,260.7l6.9,27.8L1693,936
		l-18.4-84.1c-28.2-128.9-93-246.9-186.3-340.2c-93.3-93.3-211.2-158.1-340.2-186.3L1064,307l43.4,142.7L1135.2,456.6z"/>
	<path class="st0" d="M864.8,1543.4c-98.7-24.5-188.8-75.6-260.7-147.5c-71.9-71.9-123.1-161.9-147.5-260.7l-6.9-27.8L307,1064
		l18.4,84.2c28.2,128.9,93,246.9,186.3,340.2c93.3,93.3,211.2,158.1,340.2,186.3L936,1693l-43.4-142.7L864.8,1543.4z"/>
	<path class="st0" d="M1543.4,1135.2c-24.5,98.7-75.6,188.8-147.5,260.7s-161.9,123.1-260.7,147.5l-27.8,6.9L1064,1693l84.2-18.4
		c128.9-28.2,246.9-93,340.2-186.3s158.1-211.2,186.3-340.2l18.4-84.2l-142.7,43.4L1543.4,1135.2z"/>
	<polygon class="st0" points="599.5,974.8 907.5,1089.8 1022.6,1397.9 1271.3,726 	"/>
</g>
</svg>
